<svg xmlns="http://www.w3.org/2000/svg" width="688" height="1046" viewBox="0 0 688 1046" font-family="Helvetica, Arial, sans-serif">
<rect width="688" height="1046" fill="#fbfaf7"/>
<text x="80" y="44" font-size="22" font-weight="bold" fill="#222">1645 9th St, Berkeley CA 94710 — Approximate Floor Plan</text>
<text x="80" y="68" font-size="13" fill="#555">2 bed · 1 bath · 734 sq ft · built 1919 · 2,613 sq ft lot · single-story bungalow</text>
<text x="80" y="86" font-size="12" fill="#a33">Reconstructed from the 21 listing photos only. Sizes are estimates (±2 ft), not measurements.</text>
<rect x="134" y="156" width="252" height="144" fill="#e8dcc8" stroke="#8a6a3a" stroke-width="2"/>
<line x1="152" y1="156" x2="152" y2="300" stroke="#c9b48f" stroke-width="1" stroke-linecap="square"/>
<line x1="170" y1="156" x2="170" y2="300" stroke="#c9b48f" stroke-width="1" stroke-linecap="square"/>
<line x1="188" y1="156" x2="188" y2="300" stroke="#c9b48f" stroke-width="1" stroke-linecap="square"/>
<line x1="206" y1="156" x2="206" y2="300" stroke="#c9b48f" stroke-width="1" stroke-linecap="square"/>
<line x1="224" y1="156" x2="224" y2="300" stroke="#c9b48f" stroke-width="1" stroke-linecap="square"/>
<line x1="242" y1="156" x2="242" y2="300" stroke="#c9b48f" stroke-width="1" stroke-linecap="square"/>
<line x1="260" y1="156" x2="260" y2="300" stroke="#c9b48f" stroke-width="1" stroke-linecap="square"/>
<line x1="278" y1="156" x2="278" y2="300" stroke="#c9b48f" stroke-width="1" stroke-linecap="square"/>
<line x1="296" y1="156" x2="296" y2="300" stroke="#c9b48f" stroke-width="1" stroke-linecap="square"/>
<line x1="314" y1="156" x2="314" y2="300" stroke="#c9b48f" stroke-width="1" stroke-linecap="square"/>
<line x1="332" y1="156" x2="332" y2="300" stroke="#c9b48f" stroke-width="1" stroke-linecap="square"/>
<line x1="350" y1="156" x2="350" y2="300" stroke="#c9b48f" stroke-width="1" stroke-linecap="square"/>
<line x1="368" y1="156" x2="368" y2="300" stroke="#c9b48f" stroke-width="1" stroke-linecap="square"/>
<text x="260" y="224.39999999999998" font-size="12" text-anchor="middle" fill="#222" font-weight="bold">DECK</text>
<text x="260" y="253.2" font-size="11" text-anchor="middle" fill="#555" font-weight="normal">≈ 14' × 8'</text>
<rect x="80" y="156" width="54" height="108" fill="#e8dcc8" stroke="#8a6a3a" stroke-width="2"/>
<line x1="80" y1="174" x2="134" y2="174" stroke="#8a6a3a" stroke-width="1" stroke-linecap="square"/>
<line x1="80" y1="192" x2="134" y2="192" stroke="#8a6a3a" stroke-width="1" stroke-linecap="square"/>
<line x1="80" y1="210" x2="134" y2="210" stroke="#8a6a3a" stroke-width="1" stroke-linecap="square"/>
<line x1="80" y1="228" x2="134" y2="228" stroke="#8a6a3a" stroke-width="1" stroke-linecap="square"/>
<line x1="80" y1="246" x2="134" y2="246" stroke="#8a6a3a" stroke-width="1" stroke-linecap="square"/>
<text x="107.0" y="285.6" font-size="9" text-anchor="middle" fill="#555" font-weight="normal">stairs</text>
<rect x="386" y="192" width="162" height="108" fill="#f3efe6" stroke="#222" stroke-width="3"/>
<text x="467.0" y="231.60000000000002" font-size="11" text-anchor="middle" fill="#222" font-weight="bold">REAR PORCH</text>
<text x="467.0" y="256.8" font-size="10" text-anchor="middle" fill="#555" font-weight="normal">enclosed · ≈ 9' × 6'</text>
<line x1="422" y1="192" x2="512" y2="192" stroke="#fbfaf7" stroke-width="5" stroke-linecap="square"/>
<line x1="422" y1="192" x2="512" y2="192" stroke="#3a7bd5" stroke-width="2.5" stroke-linecap="square"/>
<line x1="386" y1="219.0" x2="386" y2="264.0" stroke="#fbfaf7" stroke-width="6" stroke-linecap="square"/>
<path d="M386,219.0 L431.0,219.0 A45.0,45.0 0 0 1 386,264.0" fill="none" stroke="#666" stroke-width="1.5"/>
<line x1="548" y1="219.0" x2="548" y2="273.0" stroke="#fbfaf7" stroke-width="5" stroke-linecap="square"/>
<line x1="548" y1="219.0" x2="548" y2="273.0" stroke="#3a7bd5" stroke-width="2.5" stroke-linecap="square"/>
<rect x="80" y="300" width="468" height="540" fill="#fff" stroke="#222" stroke-width="4"/>
<rect x="368" y="768" width="180" height="144" fill="#f3efe6" stroke="#222" stroke-width="3"/>
<text x="458" y="827.4" font-size="11" text-anchor="middle" fill="#222" font-weight="bold">FRONT PORCH</text>
<text x="458" y="852.6" font-size="10" text-anchor="middle" fill="#555" font-weight="normal">enclosed entry · ≈ 10' × 8'</text>
<line x1="422" y1="912" x2="476" y2="912" stroke="#fbfaf7" stroke-width="6" stroke-linecap="square"/>
<path d="M422,912 L422,858 A54,54 0 0 1 476,912" fill="none" stroke="#666" stroke-width="1.5"/>
<line x1="368" y1="849.0" x2="368" y2="903.0" stroke="#fbfaf7" stroke-width="5" stroke-linecap="square"/>
<line x1="368" y1="849.0" x2="368" y2="903.0" stroke="#3a7bd5" stroke-width="2.5" stroke-linecap="square"/>
<line x1="494" y1="912" x2="539.0" y2="912" stroke="#fbfaf7" stroke-width="5" stroke-linecap="square"/>
<line x1="494" y1="912" x2="539.0" y2="912" stroke="#3a7bd5" stroke-width="2.5" stroke-linecap="square"/>
<text x="458" y="937.1999999999999" font-size="9" text-anchor="middle" fill="#555" font-weight="normal">concrete steps</text>
<line x1="350" y1="300" x2="350" y2="516" stroke="#222" stroke-width="3" stroke-linecap="square"/>
<line x1="350" y1="300" x2="386" y2="300" stroke="#222" stroke-width="0" stroke-linecap="square"/>
<line x1="386" y1="300" x2="386" y2="516" stroke="#222" stroke-width="3" stroke-linecap="square"/>
<line x1="350" y1="516" x2="548" y2="516" stroke="#222" stroke-width="3" stroke-linecap="square"/>
<line x1="80" y1="516" x2="242" y2="516" stroke="#222" stroke-width="3" stroke-linecap="square"/>
<line x1="80" y1="606" x2="350" y2="606" stroke="#222" stroke-width="3" stroke-linecap="square"/>
<line x1="242" y1="516" x2="242" y2="606" stroke="#222" stroke-width="3" stroke-linecap="square"/>
<line x1="350" y1="516" x2="350" y2="768" stroke="#222" stroke-width="3" stroke-linecap="square"/>
<line x1="296" y1="300" x2="296" y2="354" stroke="#222" stroke-width="3" stroke-linecap="square"/>
<line x1="296" y1="354" x2="350" y2="354" stroke="#222" stroke-width="3" stroke-linecap="square"/>
<line x1="458" y1="516" x2="458" y2="561.0" stroke="#222" stroke-width="3" stroke-linecap="square"/>
<line x1="458" y1="561.0" x2="548" y2="561.0" stroke="#222" stroke-width="3" stroke-linecap="square"/>
<rect x="335.6" y="678" width="43.19999999999999" height="63.0" fill="#c0553f" stroke="#222" stroke-width="1.5"/>
<text x="357.2" y="715.8" font-size="9" text-anchor="middle" fill="#fff" font-weight="bold">FP</text>
<rect x="339.2" y="624" width="10.800000000000011" height="45.0" fill="#ddd" stroke="#222" stroke-width="1"/>
<text x="319.4" y="651.0" font-size="8" text-anchor="middle" fill="#555" font-weight="normal">built-in</text>
<rect x="389.59999999999997" y="318" width="45.0" height="45.0" fill="#ddd" stroke="#222" stroke-width="1"/>
<text x="413.0" y="345.0" font-size="8" text-anchor="middle" fill="#222" font-weight="normal">fridge</text>
<rect x="440" y="303.6" width="45.0" height="36.0" fill="#ddd" stroke="#222" stroke-width="1"/>
<text x="461.59999999999997" y="327.0" font-size="8" text-anchor="middle" fill="#222" font-weight="normal">range</text>
<circle cx="504.8" cy="319.8" r="14.4" fill="#ddd" stroke="#222" stroke-width="1"/>
<text x="504.8" y="325.2" font-size="7" text-anchor="middle" fill="#222" font-weight="normal">WH</text>
<rect x="512" y="345.0" width="36" height="144.0" fill="#eee" stroke="#222" stroke-width="1"/>
<text x="530" y="418.8" font-size="8" text-anchor="middle" fill="#222" font-weight="normal">sink /</text>
<text x="530" y="435.0" font-size="8" text-anchor="middle" fill="#222" font-weight="normal">counter</text>
<rect x="80" y="570" width="90" height="36" fill="#eee" stroke="#222" stroke-width="1"/>
<text x="125.0" y="591.5999999999999" font-size="9" text-anchor="middle" fill="#222" font-weight="normal">tub</text>
<rect x="152" y="516" width="90" height="27.0" fill="#eee" stroke="#222" stroke-width="1"/>
<text x="197.0" y="534" font-size="8" text-anchor="middle" fill="#222" font-weight="normal">vanity</text>
<ellipse cx="107.0" cy="537.6" rx="12.6" ry="18" fill="#fff" stroke="#222" stroke-width="1"/>
<rect x="278" y="534" width="36" height="23.40000000000009" fill="#888" stroke="#222" stroke-width="1"/>
<text x="296" y="575.4000000000001" font-size="8" text-anchor="middle" fill="#555" font-weight="normal">floor furnace</text>
<line x1="301.4" y1="354" x2="344.59999999999997" y2="354" stroke="#fbfaf7" stroke-width="6" stroke-linecap="square"/>
<line x1="301.4" y1="354" x2="344.59999999999997" y2="354" stroke="#999" stroke-width="1" stroke-linecap="square" stroke-dasharray="4,4"/>
<line x1="350" y1="453.0" x2="350" y2="498.0" stroke="#fbfaf7" stroke-width="6" stroke-linecap="square"/>
<path d="M350,453.0 L305.0,453.0 A45.0,45.0 0 0 0 350,498.0" fill="none" stroke="#666" stroke-width="1.5"/>
<line x1="386" y1="462" x2="386" y2="512.4" stroke="#fbfaf7" stroke-width="6" stroke-linecap="square"/>
<line x1="386" y1="462" x2="386" y2="512.4" stroke="#999" stroke-width="1" stroke-linecap="square" stroke-dasharray="4,4"/>
<line x1="440" y1="300" x2="485.0" y2="300" stroke="#fbfaf7" stroke-width="6" stroke-linecap="square"/>
<path d="M440,300 L440,255.0 A45.0,45.0 0 0 1 485.0,300" fill="none" stroke="#666" stroke-width="1.5"/>
<line x1="242" y1="543.0" x2="242" y2="588.0" stroke="#fbfaf7" stroke-width="6" stroke-linecap="square"/>
<path d="M242,543.0 L197.0,543.0 A45.0,45.0 0 0 0 242,588.0" fill="none" stroke="#666" stroke-width="1.5"/>
<line x1="350" y1="534" x2="350" y2="579.0" stroke="#fbfaf7" stroke-width="6" stroke-linecap="square"/>
<path d="M350,534 L395.0,534 A45.0,45.0 0 0 1 350,579.0" fill="none" stroke="#666" stroke-width="1.5"/>
<line x1="476" y1="561.0" x2="530" y2="561.0" stroke="#fbfaf7" stroke-width="6" stroke-linecap="square"/>
<line x1="476" y1="561.0" x2="530" y2="561.0" stroke="#999" stroke-width="1" stroke-linecap="square" stroke-dasharray="4,4"/>
<line x1="278" y1="606" x2="332" y2="606" stroke="#fbfaf7" stroke-width="6" stroke-linecap="square"/>
<line x1="278" y1="606" x2="332" y2="606" stroke="#999" stroke-width="1" stroke-linecap="square" stroke-dasharray="4,4"/>
<line x1="350" y1="777.0" x2="350" y2="822.0" stroke="#fbfaf7" stroke-width="6" stroke-linecap="square"/>
<path d="M350,777.0 L395.0,777.0 A45.0,45.0 0 0 1 350,822.0" fill="none" stroke="#666" stroke-width="1.5"/>
<line x1="170" y1="300" x2="260" y2="300" stroke="#fbfaf7" stroke-width="6" stroke-linecap="square"/>
<line x1="170" y1="300" x2="260" y2="300" stroke="#3a7bd5" stroke-width="5" stroke-linecap="square"/>
<text x="215.0" y="289.2" font-size="8" text-anchor="middle" fill="#3a7bd5" font-weight="normal">sliding glass door</text>
<line x1="80" y1="354" x2="80" y2="426" stroke="#fbfaf7" stroke-width="5" stroke-linecap="square"/>
<line x1="80" y1="354" x2="80" y2="426" stroke="#3a7bd5" stroke-width="2.5" stroke-linecap="square"/>
<line x1="80" y1="534" x2="80" y2="579.0" stroke="#fbfaf7" stroke-width="5" stroke-linecap="square"/>
<line x1="80" y1="534" x2="80" y2="579.0" stroke="#3a7bd5" stroke-width="2.5" stroke-linecap="square"/>
<line x1="80" y1="642" x2="80" y2="696" stroke="#fbfaf7" stroke-width="5" stroke-linecap="square"/>
<line x1="80" y1="642" x2="80" y2="696" stroke="#3a7bd5" stroke-width="2.5" stroke-linecap="square"/>
<line x1="134" y1="840" x2="242" y2="840" stroke="#fbfaf7" stroke-width="5" stroke-linecap="square"/>
<line x1="134" y1="840" x2="242" y2="840" stroke="#3a7bd5" stroke-width="2.5" stroke-linecap="square"/>
<line x1="548" y1="606" x2="548" y2="678" stroke="#fbfaf7" stroke-width="5" stroke-linecap="square"/>
<line x1="548" y1="606" x2="548" y2="678" stroke="#3a7bd5" stroke-width="2.5" stroke-linecap="square"/>
<line x1="548" y1="444" x2="548" y2="480" stroke="#fbfaf7" stroke-width="5" stroke-linecap="square"/>
<line x1="548" y1="444" x2="548" y2="480" stroke="#3a7bd5" stroke-width="2.5" stroke-linecap="square"/>
<text x="188" y="399.0" font-size="14" text-anchor="middle" fill="#222" font-weight="bold">BEDROOM 2</text>
<text x="188" y="426" font-size="11" text-anchor="middle" fill="#555" font-weight="normal">≈ 15' × 12'</text>
<text x="323.0" y="332.4" font-size="8" text-anchor="middle" fill="#222" font-weight="normal">closet</text>
<text x="458" y="399.0" font-size="14" text-anchor="middle" fill="#222" font-weight="bold">KITCHEN</text>
<text x="458" y="426" font-size="10" text-anchor="middle" fill="#555" font-weight="normal">galley · ≈ 7' × 11'</text>
<text x="161.0" y="564.5999999999999" font-size="13" text-anchor="middle" fill="#222" font-weight="bold">BATH</text>
<text x="296" y="523.2" font-size="11" text-anchor="middle" fill="#222" font-weight="bold">HALL</text>
<text x="449.0" y="633.0" font-size="14" text-anchor="middle" fill="#222" font-weight="bold">BEDROOM 1</text>
<text x="449.0" y="660" font-size="11" text-anchor="middle" fill="#555" font-weight="normal">≈ 11' × 13'</text>
<text x="503.0" y="541.2" font-size="8" text-anchor="middle" fill="#222" font-weight="normal">closet</text>
<text x="215.0" y="714" font-size="15" text-anchor="middle" fill="#222" font-weight="bold">LIVING ROOM</text>
<text x="215.0" y="742.8" font-size="10" text-anchor="middle" fill="#555" font-weight="normal">≈ 15' × 13' · fireplace + built-ins</text>
<line x1="53.0" y1="300" x2="53.0" y2="840" stroke="#777" stroke-width="1" stroke-linecap="square"/>
<text transform="translate(42.199999999999996,570) rotate(-90)" font-size="10" text-anchor="middle" fill="#555">≈ 30 ft</text>
<line x1="80" y1="129.0" x2="548" y2="129.0" stroke="#777" stroke-width="1" stroke-linecap="square"/>
<text x="314" y="120" font-size="10" text-anchor="middle" fill="#555" font-weight="normal">≈ 26 ft</text>
<g transform="translate(512,127.20000000000002)"><polygon points="0,-18 6,4 0,0 -6,4" fill="#222"/><text x="0" y="18" font-size="11" text-anchor="middle" font-weight="bold">N</text></g>
<text x="224" y="876" font-size="11" text-anchor="middle" fill="#555" font-weight="normal">9th Street (front) — "N" is drawn as away from the street, not true north</text>
<line x1="80" y1="957.0" x2="110" y2="957.0" stroke="#3a7bd5" stroke-width="2.5"/><text x="118" y="961.0" font-size="11" fill="#555">window / glass</text>
<line x1="230" y1="957.0" x2="260" y2="957.0" stroke="#999" stroke-width="1" stroke-dasharray="4,4"/><text x="268" y="961.0" font-size="11" fill="#555">cased opening</text>
<text x="380" y="961.0" font-size="11" fill="#555">arc = door swing · FP = brick fireplace · WH = water heater</text>
</svg>