<svg xmlns="http://www.w3.org/2000/svg" width="688" height="1046" viewBox="0 0 688 1046" font-family="Helvetica, Arial, sans-serif">
<rect width="688" height="1046" fill="#fbfaf7"/>
<text x="80" y="44" font-size="22" font-weight="bold" fill="#222">1645 9th St, Berkeley — Proposed Layout</text>
<text x="80" y="68" font-size="13" fill="#555">2 bed · 1 bath · 734 sq ft · built 1919 · 2,613 sq ft lot · single-story bungalow</text>
<text x="80" y="86" font-size="12" fill="#1a7a3c">Change: kitchen moves from the front-right room to the rear-left room with the slider, opening onto the deck.</text>
<text x="80" y="102" font-size="12" fill="#1a7a3c">Old kitchen → bedroom 1. Rear-right stays a bedroom (2), closet added. Furnace out, mini-splits in.</text>
<rect x="134" y="156" width="252" height="144" fill="#e8dcc8" stroke="#8a6a3a" stroke-width="2"/>
<line x1="152" y1="156" x2="152" y2="300" stroke="#c9b48f" stroke-width="1" stroke-linecap="square"/>
<line x1="170" y1="156" x2="170" y2="300" stroke="#c9b48f" stroke-width="1" stroke-linecap="square"/>
<line x1="188" y1="156" x2="188" y2="300" stroke="#c9b48f" stroke-width="1" stroke-linecap="square"/>
<line x1="206" y1="156" x2="206" y2="300" stroke="#c9b48f" stroke-width="1" stroke-linecap="square"/>
<line x1="224" y1="156" x2="224" y2="300" stroke="#c9b48f" stroke-width="1" stroke-linecap="square"/>
<line x1="242" y1="156" x2="242" y2="300" stroke="#c9b48f" stroke-width="1" stroke-linecap="square"/>
<line x1="260" y1="156" x2="260" y2="300" stroke="#c9b48f" stroke-width="1" stroke-linecap="square"/>
<line x1="278" y1="156" x2="278" y2="300" stroke="#c9b48f" stroke-width="1" stroke-linecap="square"/>
<line x1="296" y1="156" x2="296" y2="300" stroke="#c9b48f" stroke-width="1" stroke-linecap="square"/>
<line x1="314" y1="156" x2="314" y2="300" stroke="#c9b48f" stroke-width="1" stroke-linecap="square"/>
<line x1="332" y1="156" x2="332" y2="300" stroke="#c9b48f" stroke-width="1" stroke-linecap="square"/>
<line x1="350" y1="156" x2="350" y2="300" stroke="#c9b48f" stroke-width="1" stroke-linecap="square"/>
<line x1="368" y1="156" x2="368" y2="300" stroke="#c9b48f" stroke-width="1" stroke-linecap="square"/>
<text x="260" y="224.39999999999998" font-size="12" text-anchor="middle" fill="#222" font-weight="bold">DECK</text>
<text x="260" y="253.2" font-size="11" text-anchor="middle" fill="#555" font-weight="normal">≈ 14' × 8'</text>
<rect x="80" y="156" width="54" height="108" fill="#e8dcc8" stroke="#8a6a3a" stroke-width="2"/>
<line x1="80" y1="174" x2="134" y2="174" stroke="#8a6a3a" stroke-width="1" stroke-linecap="square"/>
<line x1="80" y1="192" x2="134" y2="192" stroke="#8a6a3a" stroke-width="1" stroke-linecap="square"/>
<line x1="80" y1="210" x2="134" y2="210" stroke="#8a6a3a" stroke-width="1" stroke-linecap="square"/>
<line x1="80" y1="228" x2="134" y2="228" stroke="#8a6a3a" stroke-width="1" stroke-linecap="square"/>
<line x1="80" y1="246" x2="134" y2="246" stroke="#8a6a3a" stroke-width="1" stroke-linecap="square"/>
<text x="107.0" y="285.6" font-size="9" text-anchor="middle" fill="#555" font-weight="normal">stairs</text>
<rect x="386" y="192" width="162" height="108" fill="#f3efe6" stroke="#222" stroke-width="3"/>
<text x="467.0" y="231.60000000000002" font-size="10" text-anchor="middle" fill="#222" font-weight="bold">LAUNDRY / MUDROOM</text>
<text x="467.0" y="256.8" font-size="9" text-anchor="middle" fill="#555" font-weight="normal">existing rear porch · ≈ 9' × 6'</text>
<line x1="422" y1="192" x2="512" y2="192" stroke="#fbfaf7" stroke-width="5" stroke-linecap="square"/>
<line x1="422" y1="192" x2="512" y2="192" stroke="#3a7bd5" stroke-width="2.5" stroke-linecap="square"/>
<line x1="386" y1="219.0" x2="386" y2="264.0" stroke="#fbfaf7" stroke-width="6" stroke-linecap="square"/>
<path d="M386,219.0 L431.0,219.0 A45.0,45.0 0 0 1 386,264.0" fill="none" stroke="#666" stroke-width="1.5"/>
<line x1="548" y1="219.0" x2="548" y2="273.0" stroke="#fbfaf7" stroke-width="5" stroke-linecap="square"/>
<line x1="548" y1="219.0" x2="548" y2="273.0" stroke="#3a7bd5" stroke-width="2.5" stroke-linecap="square"/>
<rect x="80" y="300" width="468" height="540" fill="#fff" stroke="#222" stroke-width="4"/>
<rect x="368" y="768" width="180" height="144" fill="#f3efe6" stroke="#222" stroke-width="3"/>
<text x="458" y="827.4" font-size="11" text-anchor="middle" fill="#222" font-weight="bold">FRONT PORCH</text>
<text x="458" y="852.6" font-size="10" text-anchor="middle" fill="#555" font-weight="normal">enclosed entry · ≈ 10' × 8'</text>
<line x1="422" y1="912" x2="476" y2="912" stroke="#fbfaf7" stroke-width="6" stroke-linecap="square"/>
<path d="M422,912 L422,858 A54,54 0 0 1 476,912" fill="none" stroke="#666" stroke-width="1.5"/>
<line x1="368" y1="849.0" x2="368" y2="903.0" stroke="#fbfaf7" stroke-width="5" stroke-linecap="square"/>
<line x1="368" y1="849.0" x2="368" y2="903.0" stroke="#3a7bd5" stroke-width="2.5" stroke-linecap="square"/>
<line x1="494" y1="912" x2="539.0" y2="912" stroke="#fbfaf7" stroke-width="5" stroke-linecap="square"/>
<line x1="494" y1="912" x2="539.0" y2="912" stroke="#3a7bd5" stroke-width="2.5" stroke-linecap="square"/>
<text x="458" y="937.1999999999999" font-size="9" text-anchor="middle" fill="#555" font-weight="normal">concrete steps</text>
<line x1="350" y1="300" x2="350" y2="516" stroke="#222" stroke-width="3" stroke-linecap="square"/>
<line x1="350" y1="516" x2="548" y2="516" stroke="#222" stroke-width="3" stroke-linecap="square"/>
<line x1="80" y1="516" x2="242" y2="516" stroke="#222" stroke-width="3" stroke-linecap="square"/>
<line x1="80" y1="606" x2="350" y2="606" stroke="#222" stroke-width="3" stroke-linecap="square"/>
<line x1="242" y1="516" x2="242" y2="606" stroke="#222" stroke-width="3" stroke-linecap="square"/>
<line x1="350" y1="516" x2="350" y2="768" stroke="#222" stroke-width="3" stroke-linecap="square"/>
<line x1="458" y1="516" x2="458" y2="561.0" stroke="#222" stroke-width="3" stroke-linecap="square"/>
<line x1="458" y1="561.0" x2="548" y2="561.0" stroke="#222" stroke-width="3" stroke-linecap="square"/>
<rect x="310.4" y="721.2" width="39.60000000000002" height="50.399999999999864" fill="#c0553f" stroke="#222" stroke-width="1.5"/>
<text x="330.20000000000005" y="753.5999999999999" font-size="9" text-anchor="middle" fill="#fff" font-weight="bold">FP</text>
<rect x="339.2" y="681.5999999999999" width="10.800000000000011" height="34.200000000000045" fill="#ddd" stroke="#222" stroke-width="1"/>
<text x="306.79999999999995" y="703.2" font-size="8" text-anchor="middle" fill="#555" font-weight="normal">built-in</text>
<rect x="323.0" y="606" width="27.0" height="25.200000000000045" fill="#222" stroke="#222" stroke-width="1"/>
<line x1="350" y1="638.4000000000001" x2="350" y2="678" stroke="#fbfaf7" stroke-width="6" stroke-linecap="square"/>
<line x1="350" y1="638.4000000000001" x2="350" y2="678" stroke="#999" stroke-width="1" stroke-linecap="square" stroke-dasharray="4,4"/>
<rect x="80" y="570" width="90" height="36" fill="#eee" stroke="#222" stroke-width="1"/>
<text x="125.0" y="591.5999999999999" font-size="9" text-anchor="middle" fill="#222" font-weight="normal">tub</text>
<rect x="152" y="516" width="90" height="27.0" fill="#eee" stroke="#222" stroke-width="1"/>
<text x="197.0" y="534" font-size="8" text-anchor="middle" fill="#222" font-weight="normal">vanity</text>
<ellipse cx="107.0" cy="537.6" rx="12.6" ry="18" fill="#fff" stroke="#222" stroke-width="1"/>
<text x="296" y="575.4000000000001" font-size="8" text-anchor="middle" fill="#1a7a3c" font-weight="normal">floor furnace out · mini-splits</text>
<text x="161.0" y="564.5999999999999" font-size="13" text-anchor="middle" fill="#222" font-weight="bold">BATH</text>
<text x="296" y="523.2" font-size="11" text-anchor="middle" fill="#222" font-weight="bold">HALL</text>
<line x1="152" y1="300" x2="278" y2="300" stroke="#fbfaf7" stroke-width="6" stroke-linecap="square"/>
<line x1="152" y1="300" x2="278" y2="300" stroke="#3a7bd5" stroke-width="5" stroke-linecap="square"/>
<text x="215.0" y="289.2" font-size="8" text-anchor="middle" fill="#3a7bd5" font-weight="normal">sliding / French door to deck</text>
<rect x="83.6" y="303.6" width="45.0" height="45.0" fill="#ddd" stroke="#222" stroke-width="1"/>
<text x="106.1" y="330.6" font-size="8" text-anchor="middle" fill="#222" font-weight="normal">fridge</text>
<rect x="83.6" y="354" width="32.400000000000006" height="153.0" fill="#eee" stroke="#222" stroke-width="1"/>
<text x="99.8" y="382.8" font-size="7" text-anchor="middle" fill="#222" font-weight="normal">counter</text>
<rect x="83.6" y="399.0" width="32.400000000000006" height="45.0" fill="#ddd" stroke="#222" stroke-width="1"/>
<text x="99.8" y="424.2" font-size="7" text-anchor="middle" fill="#222" font-weight="normal">sink</text>
<rect x="83.6" y="462" width="36.0" height="45.0" fill="#ddd" stroke="#222" stroke-width="1"/>
<text x="101.6" y="487.20000000000005" font-size="7" text-anchor="middle" fill="#222" font-weight="normal">range</text>
<rect x="170" y="372" width="90" height="54" fill="#f4e9d0" stroke="#8a6a3a" stroke-width="1"/>
<text x="215.0" y="404.4" font-size="8" text-anchor="middle" fill="#555" font-weight="normal">table / island</text>
<text x="215.0" y="472.79999999999995" font-size="14" text-anchor="middle" fill="#222" font-weight="bold">KITCHEN (eat-in)</text>
<text x="215.0" y="498" font-size="10" text-anchor="middle" fill="#555" font-weight="normal">≈ 15' × 12' · opens to deck</text>
<line x1="350" y1="307.2" x2="350" y2="352.2" stroke="#fbfaf7" stroke-width="6" stroke-linecap="square"/>
<path d="M350,307.2 L395.0,307.2 A45.0,45.0 0 0 1 350,352.2" fill="none" stroke="#666" stroke-width="1.5"/>
<line x1="350" y1="462" x2="404" y2="462" stroke="#222" stroke-width="3" stroke-linecap="square"/>
<line x1="404" y1="462" x2="404" y2="516" stroke="#222" stroke-width="3" stroke-linecap="square"/>
<line x1="404" y1="467.4" x2="404" y2="510.6" stroke="#fbfaf7" stroke-width="6" stroke-linecap="square"/>
<line x1="404" y1="467.4" x2="404" y2="510.6" stroke="#999" stroke-width="1" stroke-linecap="square" stroke-dasharray="4,4"/>
<text x="377.0" y="492.6" font-size="8" text-anchor="middle" fill="#222" font-weight="normal">closet</text>
<line x1="476" y1="300" x2="521.0" y2="300" stroke="#fbfaf7" stroke-width="6" stroke-linecap="square"/>
<path d="M476,300 L476,255.0 A45.0,45.0 0 0 1 521.0,300" fill="none" stroke="#666" stroke-width="1.5"/>
<text x="458" y="408" font-size="13" text-anchor="middle" fill="#222" font-weight="bold">BEDROOM 2</text>
<text x="458" y="433.20000000000005" font-size="10" text-anchor="middle" fill="#555" font-weight="normal">≈ 11' × 12' · closet added</text>
<text x="508.40000000000003" y="287.4" font-size="7" text-anchor="middle" fill="#a33" font-weight="normal">WH moves here</text>
<line x1="242" y1="543.0" x2="242" y2="588.0" stroke="#fbfaf7" stroke-width="6" stroke-linecap="square"/>
<path d="M242,543.0 L197.0,543.0 A45.0,45.0 0 0 0 242,588.0" fill="none" stroke="#666" stroke-width="1.5"/>
<line x1="350" y1="534" x2="350" y2="579.0" stroke="#fbfaf7" stroke-width="6" stroke-linecap="square"/>
<path d="M350,534 L395.0,534 A45.0,45.0 0 0 1 350,579.0" fill="none" stroke="#666" stroke-width="1.5"/>
<line x1="476" y1="561.0" x2="530" y2="561.0" stroke="#fbfaf7" stroke-width="6" stroke-linecap="square"/>
<line x1="476" y1="561.0" x2="530" y2="561.0" stroke="#999" stroke-width="1" stroke-linecap="square" stroke-dasharray="4,4"/>
<line x1="269.0" y1="606" x2="317.6" y2="606" stroke="#fbfaf7" stroke-width="6" stroke-linecap="square"/>
<line x1="269.0" y1="606" x2="317.6" y2="606" stroke="#999" stroke-width="1" stroke-linecap="square" stroke-dasharray="4,4"/>
<line x1="350" y1="786" x2="350" y2="831.0" stroke="#fbfaf7" stroke-width="6" stroke-linecap="square"/>
<path d="M350,786 L395.0,786 A45.0,45.0 0 0 1 350,831.0" fill="none" stroke="#666" stroke-width="1.5"/>
<line x1="80" y1="354" x2="80" y2="426" stroke="#fbfaf7" stroke-width="5" stroke-linecap="square"/>
<line x1="80" y1="354" x2="80" y2="426" stroke="#3a7bd5" stroke-width="2.5" stroke-linecap="square"/>
<line x1="80" y1="534" x2="80" y2="579.0" stroke="#fbfaf7" stroke-width="5" stroke-linecap="square"/>
<line x1="80" y1="534" x2="80" y2="579.0" stroke="#3a7bd5" stroke-width="2.5" stroke-linecap="square"/>
<line x1="80" y1="642" x2="80" y2="696" stroke="#fbfaf7" stroke-width="5" stroke-linecap="square"/>
<line x1="80" y1="642" x2="80" y2="696" stroke="#3a7bd5" stroke-width="2.5" stroke-linecap="square"/>
<line x1="134" y1="840" x2="242" y2="840" stroke="#fbfaf7" stroke-width="5" stroke-linecap="square"/>
<line x1="134" y1="840" x2="242" y2="840" stroke="#3a7bd5" stroke-width="2.5" stroke-linecap="square"/>
<line x1="548" y1="606" x2="548" y2="678" stroke="#fbfaf7" stroke-width="5" stroke-linecap="square"/>
<line x1="548" y1="606" x2="548" y2="678" stroke="#3a7bd5" stroke-width="2.5" stroke-linecap="square"/>
<line x1="548" y1="444" x2="548" y2="480" stroke="#fbfaf7" stroke-width="5" stroke-linecap="square"/>
<line x1="548" y1="444" x2="548" y2="480" stroke="#3a7bd5" stroke-width="2.5" stroke-linecap="square"/>
<text x="431.0" y="633.0" font-size="14" text-anchor="middle" fill="#222" font-weight="bold">BEDROOM 1</text>
<text x="431.0" y="660" font-size="10" text-anchor="middle" fill="#555" font-weight="normal">≈ 11' × 12' · former kitchen</text>
<text x="503.0" y="541.2" font-size="8" text-anchor="middle" fill="#222" font-weight="normal">closet</text>
<text x="215.0" y="714" font-size="15" text-anchor="middle" fill="#222" font-weight="bold">LIVING ROOM</text>
<text x="215.0" y="742.8" font-size="10" text-anchor="middle" fill="#555" font-weight="normal">≈ 15' × 13' · fireplace + built-ins</text>
<line x1="53.0" y1="300" x2="53.0" y2="840" stroke="#777" stroke-width="1" stroke-linecap="square"/>
<text transform="translate(42.199999999999996,570) rotate(-90)" font-size="10" text-anchor="middle" fill="#555">≈ 30 ft</text>
<line x1="80" y1="129.0" x2="548" y2="129.0" stroke="#777" stroke-width="1" stroke-linecap="square"/>
<text x="314" y="120" font-size="10" text-anchor="middle" fill="#555" font-weight="normal">≈ 26 ft</text>
<g transform="translate(512,127.20000000000002)"><polygon points="0,-18 6,4 0,0 -6,4" fill="#222"/><text x="0" y="18" font-size="11" text-anchor="middle" font-weight="bold">N</text></g>
<text x="224" y="876" font-size="10" text-anchor="middle" fill="#555" font-weight="normal">9th Street (front) — "N" is drawn as away from the street, not true north</text>
<line x1="80" y1="957.0" x2="110" y2="957.0" stroke="#3a7bd5" stroke-width="2.5"/><text x="118" y="961.0" font-size="11" fill="#555">window / glass</text>
<line x1="230" y1="957.0" x2="260" y2="957.0" stroke="#999" stroke-width="1" stroke-dasharray="4,4"/><text x="268" y="961.0" font-size="11" fill="#555">cased opening</text>
<text x="380" y="961.0" font-size="11" fill="#555">arc = door swing · FP = brick fireplace · WH = water heater</text>
</svg>